<svg width="756" height="491" xmlns="http://www.w3.org/2000/svg" xmlns:xlink="http://www.w3.org/1999/xlink" overflow="hidden"><g><rect x="0" y="0" width="756" height="490.559" fill="#FFFFFF"/><path d="M474 28.9739 457.025 66.9398 400.975 66.9398 384 28.9739Z" stroke="#024059" stroke-width="2.00044" stroke-miterlimit="8" fill="#0F9ED5" fill-rule="evenodd"/><path d="M398 116.395C398 99.5657 411.655 85.9227 428.5 85.9227 445.345 85.9227 459 99.5657 459 116.395 459 133.225 445.345 146.868 428.5 146.868 411.655 146.868 398 133.225 398 116.395Z" stroke="#000000" stroke-width="2.00044" stroke-miterlimit="8" fill="#FFFFFF" fill-rule="evenodd"/><path d="M0 0 0.000104916 14.9615" stroke="#156082" stroke-width="1.99864" stroke-miterlimit="8" fill="none" fill-rule="evenodd" transform="matrix(-1.0009 0 0 1 429 85.9227)"/><path d="M0 0 0.000104916 14.9615" stroke="#156082" stroke-width="1.99864" stroke-miterlimit="8" fill="none" fill-rule="evenodd" transform="matrix(-1.0009 0 0 1 429 131.881)"/><path d="M429 100.909 444.132 126.225" stroke="#156082" stroke-width="2.00044" stroke-miterlimit="8" fill="none" fill-rule="evenodd"/><path d="M426 100.41C426 99.0302 427.119 97.9119 428.5 97.9119 429.881 97.9119 431 99.0302 431 100.41 431 101.789 429.881 102.907 428.5 102.907 427.119 102.907 426 101.789 426 100.41Z" stroke="#042433" stroke-width="2.00044" stroke-miterlimit="8" fill="#156082" fill-rule="evenodd"/><path d="M426 131.881C426 130.778 427.119 129.883 428.5 129.883 429.881 129.883 431 130.778 431 131.881 431 132.985 429.881 133.88 428.5 133.88 427.119 133.88 426 132.985 426 131.881Z" stroke="#042433" stroke-width="2.00044" stroke-miterlimit="8" fill="#156082" fill-rule="evenodd"/><path d="M399 183.335C399 166.506 412.655 152.863 429.5 152.863 446.345 152.863 460 166.506 460 183.335 460 200.165 446.345 213.808 429.5 213.808 412.655 213.808 399 200.165 399 183.335Z" stroke="#000000" stroke-width="2.00044" stroke-miterlimit="8" fill="#FFFFFF" fill-rule="evenodd"/><path d="M431 164.852 431 195.611 429 195.611 429 164.852ZM434.001 194.279 430 202.273 425.999 194.279Z" fill="#156082"/><path d="M459 250.275C459 267.104 445.345 280.747 428.5 280.747 411.655 280.747 398 267.104 398 250.275 398 233.445 411.655 219.802 428.5 219.802 445.345 219.802 459 233.445 459 250.275Z" stroke="#000000" stroke-width="2.00044" stroke-miterlimit="8" fill="#FFFFFF" fill-rule="evenodd"/><path d="M427 268.214 427 237.455 429 237.455 429 268.214ZM423.999 238.787 428 230.792 432.001 238.787Z" fill="#156082"/><text font-family="Aptos,Aptos_MSFontService,sans-serif" font-weight="400" font-size="27" transform="matrix(1 0 0 0.999101 481.049 59)">HydroReservoir</text><text font-family="Aptos,Aptos_MSFontService,sans-serif" font-weight="400" font-size="27" transform="matrix(1 0 0 0.999101 481.049 125)">HydroGate</text><text font-family="Aptos,Aptos_MSFontService,sans-serif" font-weight="400" font-size="27" transform="matrix(1 0 0 0.999101 481.049 190)">HydroGenerator</text><text font-family="Aptos,Aptos_MSFontService,sans-serif" font-weight="400" font-size="27" transform="matrix(1 0 0 0.999101 481.049 256)">HydroPump</text><text font-family="Aptos,Aptos_MSFontService,sans-serif" font-weight="400" font-size="27" transform="matrix(1 0 0 0.999101 481.049 322)">Sink</text><text font-family="Aptos,Aptos_MSFontService,sans-serif" font-weight="400" font-size="27" transform="matrix(1 0 0 0.999101 481.049 387)">Availability</text><path d="M398 299.73 428.645 343.084" stroke="#156082" stroke-width="2.00044" stroke-miterlimit="8" fill="none" fill-rule="evenodd"/><path d="M0 0 30.6175 43.3533" stroke="#156082" stroke-width="1.99864" stroke-miterlimit="8" fill="none" fill-rule="evenodd" transform="matrix(-1.0009 0 0 1 459.645 299.73)"/><path d="M221 10.9901 193.75 71.9353 100.25 71.9353 73 10.9901Z" stroke="#024059" stroke-width="2.00044" stroke-miterlimit="8" fill="#0F9ED5" fill-rule="evenodd"/><path d="M28 146.868C28 129.762 41.6553 115.896 58.5 115.896 75.3447 115.896 89 129.762 89 146.868 89 163.973 75.3447 177.84 58.5 177.84 41.6553 177.84 28 163.973 28 146.868Z" stroke="#000000" stroke-width="2.00044" stroke-miterlimit="8" fill="#FFFFFF" fill-rule="evenodd"/><path d="M60.0002 127.885 60.0003 158.644 57.9999 158.644 57.9998 127.885ZM63.001 157.312 59.0001 165.306 54.9992 157.312Z" fill="#156082"/><path d="M178 146.868C178 163.973 164.121 177.84 147 177.84 129.879 177.84 116 163.973 116 146.868 116 129.762 129.879 115.896 147 115.896 164.121 115.896 178 129.762 178 146.868Z" stroke="#000000" stroke-width="2.00044" stroke-miterlimit="8" fill="#FFFFFF" fill-rule="evenodd"/><path d="M145 165.306 145 134.547 147 134.547 147 165.306ZM141.999 135.88 146 127.885 150.001 135.88Z" fill="#156082"/><path d="M221 227.795 193.75 288.74 100.25 288.74 73 227.795Z" stroke="#024059" stroke-width="2.00044" stroke-miterlimit="8" fill="#0F9ED5" fill-rule="evenodd"/><path d="M212 146.868C212 129.762 225.655 115.896 242.5 115.896 259.345 115.896 273 129.762 273 146.868 273 163.973 259.345 177.84 242.5 177.84 225.655 177.84 212 163.973 212 146.868Z" stroke="#000000" stroke-width="2.00044" stroke-miterlimit="8" fill="#FFFFFF" fill-rule="evenodd"/><path d="M0 0 0.000104916 14.9615" stroke="#156082" stroke-width="1.99864" stroke-miterlimit="8" fill="none" fill-rule="evenodd" transform="matrix(-1.0009 0 0 1 243 115.896)"/><path d="M0 0 0.000104916 14.9615" stroke="#156082" stroke-width="1.99864" stroke-miterlimit="8" fill="none" fill-rule="evenodd" transform="matrix(-1.0009 0 0 1 243 162.854)"/><path d="M243 130.882 258.132 156.198" stroke="#156082" stroke-width="2.00044" stroke-miterlimit="8" fill="none" fill-rule="evenodd"/><path d="M240 130.383C240 129.003 241.119 127.885 242.5 127.885 243.881 127.885 245 129.003 245 130.383 245 131.762 243.881 132.88 242.5 132.88 241.119 132.88 240 131.762 240 130.383Z" stroke="#042433" stroke-width="2.00044" stroke-miterlimit="8" fill="#156082" fill-rule="evenodd"/><path d="M240 162.354C240 160.975 241.119 159.856 242.5 159.856 243.881 159.856 245 160.975 245 162.354 245 163.733 243.881 164.852 242.5 164.852 241.119 164.852 240 163.733 240 162.354Z" stroke="#042433" stroke-width="2.00044" stroke-miterlimit="8" fill="#156082" fill-rule="evenodd"/><path d="M146 228.019 146 222.023 148 222.023 148 228.019ZM146 220.024 146 214.028 148 214.028 148 220.024ZM146 212.03 146 206.034 148 206.034 148 212.03ZM146 204.035 146 198.039 148 198.039 148 204.035ZM146 196.04 146 190.045 148 190.045 148 196.04ZM146 188.046 146 184.502 148 184.502 148 188.046ZM142.999 185.835 147 177.84 151.001 185.835Z" fill="#156082"/><path d="M0.999322-4.75969e-06 0.99935 5.99592-0.999293 5.99593-0.999322 4.75969e-06ZM0.99936 7.99457 0.999388 13.9905-0.999255 13.9905-0.999283 7.99458ZM0.999398 15.9891 0.999426 21.9851-0.999217 21.9851-0.999245 15.9892ZM0.999436 23.9837 0.999464 29.9796-0.999179 29.9797-0.999207 23.9837ZM0.999474 31.9783 0.9995 37.393-0.999143 37.393-0.999169 31.9783ZM3.99746 36.0605 0.000209831 44.0551-3.99711 36.0606Z" fill="#156082" transform="matrix(1.0009 0 0 -1 147 115.99)"/><path d="M0.605565-0.794943 5.37522 2.83844 4.16409 4.42833-0.605565 0.794943ZM6.96511 4.04957 11.7348 7.68296 10.5236 9.27285 5.75398 5.63946ZM13.3247 8.89409 18.0943 12.5275 16.8832 14.1174 12.1135 10.484ZM19.6842 13.7386 24.4539 17.372 23.2427 18.9619 18.4731 15.3285ZM26.0438 18.5831 30.8134 22.2165 29.6023 23.8064 24.8326 20.173ZM32.4033 23.4276 37.173 27.061 35.9618 28.6509 31.1922 25.0175ZM38.7628 28.2722 43.5325 31.9056 42.3214 33.4954 37.5517 29.862ZM45.1224 33.1167 49.8921 36.7501 48.6809 38.34 43.9113 34.7066ZM51.4819 37.9612 53.1386 39.2232 51.9275 40.8131 50.2708 39.5511ZM53.8954 36.0309 57.8327 44.0552 49.0508 42.3905Z" fill="#156082" transform="matrix(-1.0009 0 0 1 115.885 71.9353)"/><path d="M58.7121 177.138 62.9266 181.407 61.5024 182.81 57.2879 178.542ZM64.3314 182.83 68.5459 187.098 67.1217 188.502 62.9072 184.233ZM69.9507 188.521 74.1652 192.79 72.7411 194.193 68.5266 189.925ZM75.5701 194.213 79.7846 198.481 78.3604 199.885 74.1459 195.616ZM81.1894 199.904 85.4039 204.173 83.9798 205.576 79.7653 201.308ZM86.8088 205.596 91.0233 209.864 89.5991 211.268 85.3846 206.999ZM92.4281 211.287 96.6426 215.556 95.2185 216.959 91.004 212.691ZM98.0475 216.979 102.262 221.247 100.838 222.651 96.6233 218.382ZM104.772 219.52 107.543 228.019 99.075 225.134Z" fill="#156082"/><path d="M180.576 71.1182 185.483 74.5698 184.331 76.204 179.424 72.7524ZM187.119 75.7203 192.026 79.1719 190.874 80.8062 185.967 77.3546ZM193.662 80.3224 198.569 83.774 197.417 85.4083 192.51 81.9567ZM200.205 84.9245 205.112 88.3761 203.96 90.0104 199.053 86.5588ZM206.748 89.5267 211.655 92.9782 210.503 94.6125 205.596 91.1609ZM213.291 94.1288 218.198 97.5804 217.046 99.2146 212.139 95.7631ZM219.834 98.7309 224.741 102.182 223.589 103.817 218.682 100.365ZM226.377 103.333 231.284 106.785 230.132 108.419 225.225 104.967ZM232.92 107.935 237.758 111.338 236.606 112.973 231.768 109.569ZM238.395 108.12 242.635 115.991 233.789 114.657Z" fill="#156082"/><path d="M0.662657-0.748017 5.15076 3.22792 3.82544 4.72396-0.662657 0.748017ZM6.64679 4.55324 11.1349 8.52918 9.80958 10.0252 5.32148 6.04927ZM12.6309 9.85449 17.119 13.8304 15.7937 15.3265 11.3056 11.3505ZM18.6151 15.1557 23.1032 19.1317 21.7778 20.6277 17.2897 16.6518ZM24.5992 20.457 29.0873 24.4329 27.762 25.929 23.2739 21.953ZM30.5833 25.7583 35.0714 29.7342 33.7461 31.2302 29.258 27.2543ZM36.5675 31.0595 41.0556 35.0355 39.7303 36.5315 35.2422 32.5555ZM42.5516 36.3608 47.0397 40.3367 45.7144 41.8327 41.2263 37.8568ZM48.5357 41.662 52.3183 45.0129 50.993 46.5089 47.2104 43.1581ZM53.3089 41.8853 56.6424 50.1786 48.0076 47.8694Z" fill="#156082" transform="matrix(-1.0009 0 0 1 242.693 177.84)"/><path d="M117 363.173C117 346.344 130.655 332.701 147.5 332.701 164.345 332.701 178 346.344 178 363.173 178 380.003 164.345 393.646 147.5 393.646 130.655 393.646 117 380.003 117 363.173Z" stroke="#000000" stroke-width="2.00044" stroke-miterlimit="8" fill="#FFFFFF" fill-rule="evenodd"/><path d="M149 344.69 149 375.449 147 375.449 147 344.69ZM152.001 374.117 148 382.111 143.999 374.117Z" fill="#156082"/><path d="M148 288.725 148.093 294.72 146.093 294.751 146 288.756ZM148.124 296.718 148.217 302.714 146.217 302.745 146.124 296.749ZM148.248 304.712 148.341 310.707 146.341 310.738 146.248 304.743ZM148.372 312.706 148.466 318.701 146.465 318.732 146.372 312.737ZM148.497 320.699 148.577 325.885 146.577 325.916 146.496 320.73ZM151.557 324.506 147.68 332.562 143.556 324.63Z" fill="#156082"/><path d="M118 437.606 148.645 480.96" stroke="#156082" stroke-width="2.00044" stroke-miterlimit="8" fill="none" fill-rule="evenodd"/><path d="M0 0 30.6175 43.3535" stroke="#156082" stroke-width="1.99864" stroke-miterlimit="8" fill="none" fill-rule="evenodd" transform="matrix(-1.0009 0 0 1 179.645 437.606)"/><path d="M149 395.629 149.093 401.624 147.093 401.655 147 395.66ZM149.124 403.622 149.217 409.617 147.217 409.648 147.124 403.653ZM149.248 411.616 149.341 417.611 147.341 417.642 147.248 411.647ZM149.372 419.609 149.466 425.605 147.465 425.636 147.372 419.64ZM149.497 427.603 149.577 432.789 147.577 432.82 147.496 427.634ZM152.557 431.41 148.68 439.466 144.556 431.534Z" fill="#156082"/><rect x="373.5" y="11.4896" width="353" height="416.625" stroke="#000000" stroke-width="1.00022" stroke-miterlimit="8" fill="none"/><path d="M399 378.659C399 361.554 412.879 347.687 430 347.687 447.121 347.687 461 361.554 461 378.659 461 395.765 447.121 409.632 430 409.632 412.879 409.632 399 395.765 399 378.659Z" stroke="#000000" stroke-width="2.00044" stroke-miterlimit="8" fill="#FFFFFF" fill-rule="evenodd"/><text font-family="Aptos,Aptos_MSFontService,sans-serif" font-weight="400" font-size="27" transform="matrix(1 0 0 0.999101 421.862 387)">A</text><path d="M275 241.283C275 224.453 288.655 210.81 305.5 210.81 322.345 210.81 336 224.453 336 241.283 336 258.113 322.345 271.756 305.5 271.756 288.655 271.756 275 258.113 275 241.283Z" stroke="#000000" stroke-width="2.00044" stroke-miterlimit="8" fill="#FFFFFF" fill-rule="evenodd"/><text font-family="Aptos,Aptos_MSFontService,sans-serif" font-weight="400" font-size="27" transform="matrix(1 0 0 0.999101 297.329 249)">A</text><path d="M80.3489 167.912 85.9732 170.003 85.2753 171.876 79.6511 169.785ZM87.848 170.701 93.4723 172.792 92.7744 174.665 87.1501 172.574ZM95.347 173.49 100.971 175.581 100.273 177.454 94.6491 175.363ZM102.846 176.279 108.47 178.37 107.772 180.244 102.148 178.152ZM110.345 179.068 115.969 181.159 115.271 183.033 109.647 180.941ZM117.844 181.857 123.468 183.949 122.77 185.822 117.146 183.73ZM125.343 184.646 130.967 186.738 130.27 188.611 124.645 186.519ZM132.842 187.435 138.466 189.527 137.769 191.4 132.144 189.308ZM140.341 190.224 145.965 192.316 145.268 194.189 139.643 192.097ZM147.84 193.013 153.465 195.105 152.767 196.978 147.142 194.886ZM155.339 195.802 160.964 197.894 160.266 199.767 154.641 197.675ZM162.838 198.591 168.463 200.683 167.765 202.556 162.14 200.464ZM170.337 201.38 175.962 203.472 175.264 205.345 169.639 203.253ZM177.836 204.169 183.461 206.261 182.763 208.134 177.138 206.042ZM185.335 206.958 190.96 209.05 190.262 210.923 184.638 208.831ZM192.834 209.747 198.459 211.839 197.761 213.712 192.137 211.62ZM200.333 212.536 205.958 214.628 205.26 216.501 199.636 214.409ZM207.833 215.325 213.457 217.417 212.759 219.29 207.135 217.198ZM215.332 218.114 220.956 220.206 220.258 222.079 214.634 219.987ZM222.831 220.903 228.455 222.995 227.757 224.868 222.133 222.776ZM230.33 223.692 235.954 225.784 235.256 227.657 229.632 225.565ZM237.829 226.481 243.453 228.573 242.755 230.446 237.131 228.354ZM245.328 229.27 250.952 231.362 250.254 233.235 244.63 231.143ZM252.827 232.059 258.451 234.151 257.753 236.024 252.129 233.932ZM260.326 234.848 265.95 236.94 265.252 238.813 259.628 236.721ZM267.825 237.637 268.854 238.02 268.156 239.893 267.127 239.511ZM268.651 234.746 274.754 241.281 265.859 242.238Z" fill="#C00000"/><path d="M283.796 220.545 278.306 218.125 279.113 216.296 284.604 218.717ZM276.475 217.318 270.985 214.898 271.792 213.069 277.283 215.49ZM269.155 214.091 263.664 211.671 264.472 209.842 269.962 212.262ZM261.834 210.864 256.343 208.443 257.151 206.615 262.641 209.035ZM254.513 207.637 249.022 205.216 249.83 203.388 255.32 205.808ZM247.192 204.409 241.701 201.989 242.509 200.16 248 202.581ZM239.871 201.182 234.381 198.762 235.188 196.933 240.679 199.354ZM232.55 197.955 227.06 195.535 227.867 193.706 233.358 196.126ZM225.23 194.728 219.739 192.307 220.547 190.479 226.037 192.899ZM217.909 191.501 212.418 189.08 213.226 187.252 218.716 189.672ZM210.588 188.273 205.097 185.853 205.905 184.024 211.395 186.445ZM203.267 185.046 197.776 182.626 198.584 180.797 204.075 183.218ZM195.946 181.819 190.456 179.399 191.263 177.57 196.754 179.99ZM188.625 178.592 183.135 176.171 183.942 174.343 189.433 176.763ZM181.305 175.365 175.814 172.944 176.621 171.116 182.112 173.536ZM174.706 175.732 169 168.848 177.936 168.418Z" fill="#C00000"/><path d="M0.690301-0.722584 5.02581 3.41922 3.64521 4.86439-0.690301 0.722584ZM6.47098 4.79982 10.8065 8.94163 9.42588 10.3868 5.09037 6.24499ZM12.2517 10.3222 16.5872 14.464 15.2066 15.9092 10.871 11.7674ZM18.0323 15.8446 22.3678 19.9864 20.9872 21.4316 16.6517 17.2898ZM23.813 21.367 28.1485 25.5088 26.7679 26.954 22.4324 22.8122ZM29.5937 26.8894 33.9292 31.0313 32.5486 32.4764 28.2131 28.3346ZM35.3744 32.4119 39.7099 36.5537 38.3293 37.9988 33.9938 33.857ZM41.155 37.9343 45.4905 42.0761 44.1099 43.5212 39.7744 39.3794ZM46.9357 43.4567 51.2712 47.5985 49.8906 49.0436 45.5551 44.9018ZM52.7164 48.9791 57.0519 53.1209 55.6713 54.566 51.3358 50.4242ZM58.4971 54.5015 62.8326 58.6433 61.452 60.0885 57.1165 55.9467ZM64.2777 60.0239 68.6132 64.1657 67.2326 65.6109 62.8971 61.4691ZM70.0584 65.5463 74.3939 69.6881 73.0133 71.1333 68.6778 66.9915ZM75.8391 71.0687 80.1746 75.2105 78.794 76.6557 74.4585 72.5139ZM81.6198 76.5911 85.9553 80.7329 84.5747 82.1781 80.2392 78.0363ZM87.4004 82.1135 91.7359 86.2553 90.3553 87.7005 86.0198 83.5587ZM93.1811 87.6359 97.5166 91.7777 96.136 93.2229 91.8005 89.0811ZM98.9618 93.1583 101.322 95.4129 99.9412 96.8581 97.5812 94.6035ZM102.429 92.325 105.449 100.738 96.9071 98.1056Z" fill="#C00000" transform="matrix(1.0009 0 0 -1 178 363.501)"/></g></svg>